<?xml version="1.0" encoding="UTF-8" standalone="no"?>
<!DOCTYPE svg PUBLIC "-//W3C//DTD SVG 1.1//EN" "http://www.w3.org/Graphics/SVG/1.1/DTD/svg11.dtd">
<svg xmlns="http://www.w3.org/2000/svg" version="1.1" viewBox="0.00 0.00 400.00 400.00">
<path fill="#1d1d1b" d="
  M 297.88 148.77
  A 111.76 111.76 0.0 0 1 186.12 260.53
  A 111.76 111.76 0.0 0 1 74.36 148.77
  A 111.76 111.76 0.0 0 1 186.12 37.01
  A 111.76 111.76 0.0 0 1 297.88 148.77
  Z
  M 283.25 148.85
  A 96.65 96.65 0.0 0 0 186.60 52.20
  A 96.65 96.65 0.0 0 0 89.95 148.85
  A 96.65 96.65 0.0 0 0 186.60 245.50
  A 96.65 96.65 0.0 0 0 283.25 148.85
  Z"
/>
<path fill="#008d3c" d="
  M 187.97 61.81
  C 219.18 117.05 218.81 182.90 186.43 237.58
  A 0.27 0.27 0.0 0 1 185.97 237.59
  C 150.70 183.61 151.18 115.40 186.90 61.77
  Q 187.47 60.92 187.97 61.81
  Z"
/>
<path fill="#008d3c" d="
  M 176.61 237.53
  C 153.15 235.69 131.88 224.32 116.87 206.06
  Q 95.86 180.51 97.02 147.05
  A 0.23 0.23 0.0 0 1 97.33 146.84
  C 138.44 160.81 168.06 194.41 177.11 236.96
  Q 177.24 237.58 176.61 237.53
  Z"
/>
<path fill="#008d3c" d="
  M 195.19 237.22
  C 201.76 209.40 217.64 184.85 239.85 167.71
  Q 246.77 162.38 255.95 156.23
  Q 264.09 150.79 274.59 148.76
  Q 275.20 148.64 275.20 149.27
  Q 274.99 187.67 247.60 213.99
  Q 226.39 234.37 195.65 237.73
  Q 195.05 237.80 195.19 237.22
  Z"
/>
<path fill="#1d1d1b" d="
  M 83.02 324.43
  Q 82.98 318.79 83.00 313.02
  C 83.01 311.51 82.33 310.07 81.48 308.84
  Q 81.07 308.25 81.79 308.25
  L 94.98 308.25
  Q 95.49 308.25 95.21 308.68
  Q 93.49 311.35 93.49 314.22
  Q 93.51 329.09 93.51 345.00
  C 93.51 346.97 93.92 348.98 94.74 350.75
  Q 95.08 351.51 94.25 351.51
  L 82.04 351.50
  Q 81.22 351.50 81.65 350.80
  C 82.35 349.63 83.02 348.55 83.01 347.13
  Q 82.98 338.98 83.01 330.80
  Q 83.02 330.24 82.45 330.24
  L 71.53 330.25
  Q 70.99 330.25 70.99 330.79
  Q 71.00 339.04 71.01 347.05
  C 71.01 348.37 71.41 349.73 72.08 350.87
  Q 72.44 351.50 71.72 351.50
  L 59.05 351.50
  Q 58.50 351.50 58.81 351.06
  Q 60.22 349.05 60.23 346.69
  Q 60.28 330.88 60.24 313.51
  C 60.24 311.79 59.54 310.15 58.50 308.80
  Q 58.08 308.25 58.77 308.25
  L 71.72 308.25
  Q 72.46 308.25 72.00 308.82
  Q 70.53 310.65 70.74 313.01
  Q 71.24 318.84 70.72 324.40
  A 0.55 0.55 0.0 0 0 71.27 325.00
  L 82.46 325.00
  Q 83.03 325.00 83.02 324.43
  Z"
/>
<path fill="#1d1d1b" d="
  M 162.98 353.11
  Q 174.78 361.45 186.74 357.22
  C 189.49 356.25 191.99 354.62 194.66 353.43
  Q 195.48 353.07 195.01 353.84
  C 188.65 364.26 175.18 364.30 164.90 361.16
  Q 157.96 359.05 152.89 353.47
  Q 143.22 342.82 137.73 330.16
  Q 137.06 328.60 137.04 330.30
  Q 136.96 338.20 137.00 346.33
  C 137.01 347.96 137.55 349.54 138.57 350.79
  Q 139.13 351.49 138.24 351.49
  L 98.29 351.50
  Q 97.57 351.50 97.97 350.91
  C 98.85 349.62 99.50 348.11 99.50 346.50
  Q 99.50 329.90 99.50 313.73
  C 99.50 312.06 98.95 310.46 98.27 308.97
  Q 97.95 308.25 98.74 308.25
  L 121.50 308.25
  A 0.93 0.92 -9.1 0 1 122.38 308.88
  L 125.05 316.54
  Q 125.42 317.58 124.50 316.97
  Q 117.42 312.22 110.12 313.98
  A 0.81 0.81 0.0 0 0 109.50 314.77
  L 109.50 324.73
  A 0.54 0.54 0.0 0 0 110.05 325.27
  C 112.28 325.26 115.96 325.72 117.77 324.55
  Q 118.50 324.07 118.50 324.94
  L 118.50 330.98
  Q 118.50 331.51 118.03 331.28
  Q 114.89 329.70 110.29 330.33
  Q 109.71 330.40 109.71 330.99
  Q 109.78 336.95 109.74 343.18
  Q 109.72 345.18 111.63 345.76
  Q 119.81 348.25 126.27 342.42
  Q 126.76 341.97 126.76 341.32
  Q 126.74 327.98 126.76 313.71
  C 126.76 312.29 126.33 310.69 125.25 309.72
  Q 124.58 309.11 125.48 309.07
  Q 135.96 308.56 145.25 308.79
  C 150.71 308.92 155.24 312.74 155.61 318.23
  Q 156.08 325.37 148.70 328.56
  Q 148.13 328.81 148.33 329.40
  Q 152.42 341.73 160.30 350.56
  A 0.42 0.42 0.0 0 0 160.94 350.55
  Q 162.50 348.59 162.50 346.06
  Q 162.49 330.54 162.51 314.95
  Q 162.52 311.91 160.55 309.21
  Q 160.23 308.77 160.78 308.76
  Q 173.56 308.63 180.35 308.89
  C 189.49 309.23 192.89 320.02 185.49 325.33
  Q 184.83 325.80 185.59 326.08
  C 190.07 327.75 192.22 333.05 192.31 337.48
  C 192.51 346.36 185.96 352.25 177.10 352.45
  Q 170.30 352.59 163.19 352.47
  Q 162.04 352.45 162.98 353.11
  Z
  M 172.26 314.70
  L 172.26 324.26
  A 0.83 0.83 0.0 0 0 173.09 325.09
  L 173.39 325.09
  A 6.23 5.49 0.0 0 0 179.62 319.60
  L 179.62 319.36
  A 6.23 5.49 0.0 0 0 173.39 313.87
  L 173.09 313.87
  A 0.83 0.83 0.0 0 0 172.26 314.70
  Z
  M 137.00 314.09
  L 137.02 325.11
  A 0.20 0.20 0.0 0 0 137.22 325.31
  L 139.46 325.30
  A 6.32 5.49 -0.1 0 0 145.77 319.80
  L 145.77 319.36
  A 6.32 5.49 -0.1 0 0 139.44 313.88
  L 137.20 313.89
  A 0.20 0.20 0.0 0 0 137.00 314.09
  Z
  M 177.38 346.20
  C 186.31 341.62 183.96 328.20 173.36 328.07
  Q 172.30 328.06 172.29 329.12
  Q 172.21 336.44 172.26 344.02
  C 172.28 346.59 175.57 347.13 177.38 346.20
  Z
  M 125.2393 351.0897
  A 2.41 0.44 107.4 0 0 126.3799 348.9216
  A 2.41 0.44 107.4 0 0 126.6807 346.4903
  A 2.41 0.44 107.4 0 0 125.5401 348.6584
  A 2.41 0.44 107.4 0 0 125.2393 351.0897
  Z"
/>
<path fill="#1d1d1b" d="
  M 253.35 344.82
  L 250.39 351.91
  A 0.97 0.97 0.0 0 1 249.50 352.50
  L 213.94 352.50
  Q 213.10 352.50 213.57 351.80
  C 214.22 350.83 214.66 349.70 214.51 348.52
  C 213.69 341.92 209.10 335.37 202.07 335.20
  Q 201.50 335.18 201.32 335.73
  Q 199.49 341.52 197.54 347.24
  C 197.02 348.77 197.26 350.41 198.11 351.77
  Q 198.56 352.49 197.71 352.49
  L 187.03 352.50
  Q 186.37 352.50 186.84 352.03
  Q 189.66 349.23 191.14 345.07
  Q 197.19 328.05 202.16 314.01
  Q 202.92 311.87 201.71 309.24
  Q 201.49 308.75 202.03 308.75
  L 211.02 308.75
  A 0.77 0.77 0.0 0 1 211.75 309.27
  L 225.72 350.07
  Q 225.91 350.62 226.31 350.19
  Q 227.51 348.87 227.51 347.04
  Q 227.48 330.88 227.51 313.25
  C 227.51 311.67 226.62 310.46 225.52 309.39
  Q 224.86 308.75 225.78 308.75
  L 238.72 308.75
  Q 239.54 308.75 239.05 309.41
  C 238.16 310.59 237.52 311.91 237.52 313.43
  Q 237.49 328.44 237.16 343.71
  Q 237.10 346.12 239.59 346.40
  C 243.75 346.86 250.69 345.86 253.39 342.21
  A 1.86 1.85 63.3 0 0 253.75 341.11
  Q 253.75 327.01 253.76 313.90
  C 253.76 312.24 253.15 310.59 252.01 309.37
  Q 251.43 308.75 252.28 308.75
  L 265.81 308.75
  Q 266.45 308.75 266.08 309.28
  Q 264.53 311.54 264.52 314.22
  Q 264.48 329.07 264.52 345.76
  Q 264.52 348.98 266.16 351.94
  Q 266.47 352.50 265.82 352.50
  L 252.76 352.50
  Q 252.01 352.51 252.39 351.86
  Q 254.20 348.77 253.74 344.87
  Q 253.65 344.09 253.35 344.82
  Z
  M 203.69 328.50
  A 0.30 0.30 0.0 0 1 203.63 328.59
  L 203.18 329.13
  A 0.30 0.30 0.0 0 0 203.32 329.61
  L 208.66 331.23
  A 0.30 0.30 0.0 0 0 209.03 330.85
  L 206.29 322.79
  A 0.30 0.30 0.0 0 0 205.72 322.79
  L 203.69 328.50
  Z"
/>
<path fill="#1d1d1b" d="
  M 280.98 331.61
  Q 281.02 338.12 280.99 345.24
  C 280.98 347.57 281.45 349.84 282.64 351.81
  Q 283.06 352.51 282.25 352.51
  L 268.50 352.50
  A 0.24 0.23 -72.4 0 1 268.31 352.13
  Q 270.25 349.43 270.25 346.06
  Q 270.24 330.92 270.25 315.08
  Q 270.26 311.88 268.42 309.25
  Q 268.07 308.75 268.69 308.75
  L 292.59 308.75
  Q 293.22 308.75 293.39 309.35
  L 295.89 317.94
  Q 296.18 318.95 295.40 318.24
  Q 289.53 312.87 281.61 313.75
  Q 281.00 313.82 281.00 314.43
  L 281.00 324.80
  Q 281.00 325.35 281.54 325.43
  Q 285.93 326.01 288.66 324.61
  Q 289.25 324.31 289.25 324.97
  L 289.25 331.29
  Q 289.25 332.00 288.59 331.74
  Q 285.57 330.51 281.43 331.09
  Q 280.98 331.16 280.98 331.61
  Z"
/>
<path fill="#1d1d1b" d="
  M 308.00 331.45
  L 308.00 344.83
  Q 308.00 345.59 308.64 346.00
  Q 309.73 346.69 311.11 346.86
  Q 318.74 347.82 324.11 342.30
  Q 325.18 341.19 324.64 342.64
  L 321.16 351.87
  A 0.96 0.96 0.0 0 1 320.26 352.50
  L 295.74 352.50
  Q 294.91 352.50 295.33 351.79
  C 296.30 350.12 297.02 348.41 297.02 346.42
  Q 296.99 331.15 297.00 314.18
  C 297.00 312.41 296.41 310.89 295.36 309.51
  Q 294.79 308.75 295.74 308.75
  L 319.49 308.75
  Q 320.04 308.75 320.19 309.27
  L 322.69 317.79
  Q 322.96 318.70 322.24 318.08
  Q 316.15 312.79 308.38 313.60
  A 0.43 0.42 87.1 0 0 308.00 314.03
  L 308.00 324.81
  Q 308.00 325.34 308.53 325.42
  Q 312.30 326.00 315.36 324.57
  Q 316.00 324.27 316.00 324.98
  L 316.00 331.25
  Q 316.00 331.97 315.35 331.67
  Q 312.48 330.37 308.62 330.76
  Q 308.00 330.82 308.00 331.45
  Z"
/>
<path fill="#1d1d1b" d="
  M 336.24 349.47
  L 336.23 351.01
  Q 336.23 351.67 335.57 351.75
  L 335.29 351.78
  Q 334.76 351.85 334.76 351.31
  L 334.74 345.91
  Q 334.73 345.58 334.41 345.61
  L 332.47 345.80
  Q 332.26 345.83 332.26 346.04
  L 332.24 351.26
  Q 332.24 351.76 331.74 351.76
  L 331.00 351.76
  Q 330.49 351.76 330.49 351.25
  L 330.50 346.28
  Q 330.50 345.51 329.76 345.72
  Q 328.97 345.94 328.36 345.49
  A 0.69 0.69 0.0 0 1 328.78 344.24
  L 336.11 344.32
  Q 336.59 344.32 336.76 344.77
  L 338.06 348.12
  Q 338.50 349.24 338.82 348.08
  Q 339.25 346.51 339.79 344.99
  Q 340.14 344.00 341.21 344.19
  Q 341.74 344.28 341.75 344.82
  L 341.76 351.22
  Q 341.76 351.96 341.03 351.80
  L 340.58 351.70
  Q 339.88 351.54 340.09 350.85
  Q 340.26 350.29 340.26 349.72
  Q 340.25 349.03 339.89 349.61
  Q 339.51 350.23 339.33 350.95
  Q 339.21 351.42 338.79 351.67
  Q 338.41 351.89 337.94 351.77
  A 0.77 0.77 0.0 0 1 337.41 351.29
  L 336.67 349.39
  Q 336.24 348.29 336.24 349.47
  Z"
/>
</svg>
